<?xml version="1.0" encoding="UTF-8" standalone="no"?>
<svg
   width="512px"
   height="512px"
   viewBox="0 0 512 512"
   version="1.1"
   id="svg3"
   sodipodi:docname="QtMaterial512.svg"
   inkscape:export-filename="QtMaterial512.svg"
   inkscape:export-xdpi="137.14345"
   inkscape:export-ydpi="137.14345"
   inkscape:version="1.3.2 (091e20ef0f, 2023-11-25, custom)"
   xmlns:inkscape="http://www.inkscape.org/namespaces/inkscape"
   xmlns:sodipodi="http://sodipodi.sourceforge.net/DTD/sodipodi-0.dtd"
   xmlns="http://www.w3.org/2000/svg"
   xmlns:svg="http://www.w3.org/2000/svg">
  <defs
     id="defs3" />
  <sodipodi:namedview
     id="namedview3"
     pagecolor="#505050"
     bordercolor="#ffffff"
     borderopacity="1"
     inkscape:showpageshadow="0"
     inkscape:pageopacity="0"
     inkscape:pagecheckerboard="1"
     inkscape:deskcolor="#d1d1d1"
     showguides="false"
     inkscape:zoom="1.3671875"
     inkscape:cx="256"
     inkscape:cy="256"
     inkscape:window-width="1920"
     inkscape:window-height="970"
     inkscape:window-x="0"
     inkscape:window-y="32"
     inkscape:window-maximized="1"
     inkscape:current-layer="svg3" />
  <g
     id="surface1"
     transform="matrix(1.4285777,0,0,1.4285777,-109.71588,-109.71588)"
     style="stroke-width:0.699997">
    <path
       style="fill:#1fa831;fill-opacity:1;fill-rule:nonzero;stroke:none;stroke-width:0.699997"
       d="M 76.800781,76.800781 H 435.19922 V 435.19922 H 76.800781 Z m 0,0"
       id="path2" />
    <path
       style="fill:#41cd52;fill-opacity:1;fill-rule:nonzero;stroke:none;stroke-width:0.699997"
       d="M 435.19922,76.800781 256,435.19922 76.800781,76.800781 Z m 0,0"
       id="path3" />
  </g>
  <path
     style="font-weight:bold;font-stretch:semi-condensed;font-size:384px;line-height:1.25;font-family:'DejaVu Sans';-inkscape-font-specification:'DejaVu Sans, Bold Semi-Condensed';text-align:center;letter-spacing:0px;word-spacing:0px;text-anchor:middle;fill:#ffffff"
     d="m 262.9375,367.65625 h -5.0625 q -62.25,0 -96.9375,-38.25 -34.5,-38.25 -34.5,-106.5 0,-68.0625 34.5,-106.6875 34.5,-38.625 95.0625,-38.625 61.3125,0 95.4375,38.25 34.125,38.25 34.125,107.0625 0,47.25 -18.1875,81.375 -18,34.125 -52.125,51.375 l 50.8125,63 h -61.875 z M 256,129.90625 q -29.625,0 -46.125,24.375 -16.3125,24.375 -16.3125,68.625 0,45 15.9375,69 16.125,23.8125 46.5,23.8125 29.8125,0 46.125,-24.375 16.5,-24.375 16.5,-68.4375 0,-44.25 -16.5,-68.625 -16.3125,-24.375 -46.125,-24.375 z"
     id="q"
     inkscape:highlight-color="#007f00"
     inkscape:label="#q"
     aria-label="Q" />
</svg>
